<?xml version="1.0" encoding="utf-8"?>
<!-- Generator: Adobe Illustrator 14.0.0, SVG Export Plug-In . SVG Version: 6.00 Build 43363)  -->
<!DOCTYPE svg PUBLIC "-//W3C//DTD SVG 1.1//EN" "http://www.w3.org/Graphics/SVG/1.1/DTD/svg11.dtd">
<svg version="1.1" id="Layer_1" xmlns="http://www.w3.org/2000/svg" xmlns:xlink="http://www.w3.org/1999/xlink" x="0px" y="0px"
	 width="200px" height="200px" viewBox="0 0 200 200" enable-background="new 0 0 200 200" xml:space="preserve">
<linearGradient id="SVGID_1_" gradientUnits="userSpaceOnUse" x1="109.9746" y1="126.9141" x2="89.3936" y2="70.3682">
	<stop  offset="0" style="stop-color:#B8552B"/>
	<stop  offset="1" style="stop-color:#7D0A05"/>
</linearGradient>
<path fill="url(#SVGID_1_)" d="M114.669,80.165c0,0-1.085,2.225-5.424,0s-6.629-4.543-11.331-5.377
	c-4.7-0.834-13.016-1.784-21.749,0.648c-6.563,1.828-16.213,5.044-21.398,14.555c-3.134,5.748-3.495,14-0.963,19.839
	c2.531,5.84,6.629,11.402,12.775,14.461c6.146,3.061,15.668,4.451,20.73,4.451s10.011-0.836,13.265-2.781
	c3.253-1.947-2.178-3.523,5.779-2.967c7.953,0.557,8.315,2.225,12.291,0.557c3.98-1.67,6.873-5.006,6.873-5.006
	s-1.811,0.555-3.618-2.227c-1.807-2.779,6.509-0.834,6.509-0.834s4.219-1.02,6.146-3.893c1.929-2.875,5.063,0,8.316,0
	s6.148,1.111,6.148,1.111s-4.702-5.563-7.957-6.953c-3.254-1.391-0.359-2.25-1.808-3.906c-1.446-1.655-1.987-0.09-4.156-0.09
	c-2.17,0-0.544-1.983-0.544-1.983c3.616-1.668,8.679-4.959,11.21-2.085c1.544,1.753,3.255-0.835,3.255-0.835
	s-3.255-3.894-5.424-5.562c-2.17-1.67-3.979-4.173-5.425-4.729c-1.446-0.557-6.508-1.391-8.315-1.391
	c-1.809,0-7.956,0.834-7.956,0.834s-2.169-1.112-2.169-1.946c0-0.835,5.063-2.503,5.063-2.503l1.445-4.172l-1.325-2.225
	l-4.339,4.264L114.669,80.165z"/>
</svg>
