<?xml version="1.0" encoding="utf-8"?>
<!-- Generator: Adobe Illustrator 14.0.0, SVG Export Plug-In . SVG Version: 6.00 Build 43363)  -->
<!DOCTYPE svg PUBLIC "-//W3C//DTD SVG 1.1//EN" "http://www.w3.org/Graphics/SVG/1.1/DTD/svg11.dtd">
<svg version="1.1" id="Layer_1" xmlns="http://www.w3.org/2000/svg" xmlns:xlink="http://www.w3.org/1999/xlink" x="0px" y="0px"
	 width="200px" height="200px" viewBox="0 0 200 200" enable-background="new 0 0 200 200" xml:space="preserve">
<linearGradient id="SVGID_1_" gradientUnits="userSpaceOnUse" x1="108.1514" y1="124.3223" x2="87.4925" y2="67.5626">
	<stop  offset="0" style="stop-color:#F6F97D"/>
	<stop  offset="1" style="stop-color:#F0C74F"/>
</linearGradient>
<path fill="url(#SVGID_1_)" d="M74.865,72.318c0,0-9.514,2.713-12.686,5.633c-3.166,2.922-7.488,6.053-8.064,7.513
	c-0.576,1.463-6.626,10.124-6.05,14.453c0.577,4.329,1.731,10.798,4.034,13.93c2.305,3.129,6.018,6.677,9.348,8.138
	c3.326,1.462,14.275,3.757,17.732,4.174c3.457,0.416,7.201-0.417,9.793-1.669c2.596-1.253,0.863-2.922,4.898-3.13
	c4.033-0.21,14.115,0.416,18.438,0c4.32-0.418,5.186,0,7.777-1.67s3.746-2.714,0-2.922c-3.746-0.209-8.066-0.836-8.643-1.877
	c-0.576-1.044-0.621-1.254,3.578-1.463c4.201-0.208,4.383,0,7.461-0.418c3.078-0.416,3.654-1.25,6.246-2.713
	c2.592-1.459,8.068-1.669,10.66-1.669s3.744,0.418,5.475-1.46c1.727-1.879,2.303-1.67-1.73-2.297
	c-4.033-0.625-1.729-1.043-8.354-2.086c-6.627-1.043-8.932-0.416-10.371-1.877c-1.441-1.461-2.018-2.295,1.729-3.548
	c3.744-1.251,4.033-3.13,7.779-3.546c3.744-0.418,8.354-0.835,10.08-0.627c1.73,0.209,7.492-0.416,4.32-1.251
	c-3.166-0.835-7.775-2.295-8.928-3.758c-1.152-1.459-5.764-2.712-8.93-3.338c-3.17-0.624-10.949,0.21-12.389,0.835
	c-1.441,0.625-2.594,0.417-1.152-1.879c1.441-2.295,1.441-5.425,1.441-5.425s-1.73-1.252-4.611-0.208s-2.881,3.965-6.625,3.131
	c-3.744-0.835-4.609-3.548-10.084-4.8c-5.471-1.253-7.203-4.174-9.506-4.174C85.229,72.318,74.865,72.318,74.865,72.318z"/>
</svg>
