<?xml version="1.0" encoding="utf-8"?>
<!-- Generator: Adobe Illustrator 14.0.0, SVG Export Plug-In . SVG Version: 6.00 Build 43363)  -->
<!DOCTYPE svg PUBLIC "-//W3C//DTD SVG 1.1//EN" "http://www.w3.org/Graphics/SVG/1.1/DTD/svg11.dtd">
<svg version="1.1" id="Layer_1" xmlns="http://www.w3.org/2000/svg" xmlns:xlink="http://www.w3.org/1999/xlink" x="0px" y="0px"
	 width="800px" height="600px" viewBox="0 0 800 600" enable-background="new 0 0 800 600" xml:space="preserve">
<linearGradient id="SVGID_1_" gradientUnits="userSpaceOnUse" x1="334.9453" y1="248.3203" x2="312.9665" y2="187.9341">
	<stop  offset="0" style="stop-color:#B8552B"/>
	<stop  offset="1" style="stop-color:#7D0A05"/>
</linearGradient>
<path fill="url(#SVGID_1_)" d="M340.337,198.753c0,0-1.197,2.311-5.989,0c-4.79-2.311-7.319-4.718-12.511-5.585
	c-5.19-0.866-14.373-1.854-24.016,0.673c-7.247,1.899-17.903,5.24-23.629,15.119c-3.461,5.971-3.859,14.541-1.064,20.608
	c2.794,6.066,7.319,11.844,14.107,15.021c6.787,3.178,17.301,4.623,22.891,4.623s11.054-0.868,14.647-2.889
	c3.593-2.022-2.404-3.659,6.381-3.082c8.783,0.579,9.182,2.312,13.574,0.579c4.393-1.734,7.588-5.2,7.588-5.2
	s-1.998,0.578-3.995-2.312c-1.994-2.888,7.188-0.866,7.188-0.866s4.657-1.059,6.786-4.044c2.13-2.985,5.589,0,9.184,0
	c3.593,0,6.789,1.155,6.789,1.155s-5.192-5.778-8.787-7.223c-3.593-1.444-0.396-2.337-1.996-4.057
	c-1.597-1.72-2.195-0.095-4.588-0.095c-2.397,0-0.602-2.059-0.602-2.059c3.992-1.732,9.583-5.151,12.377-2.166
	c1.705,1.82,3.596-0.868,3.596-0.868s-3.596-4.044-5.99-5.776c-2.396-1.735-4.394-4.335-5.99-4.912
	c-1.597-0.578-7.186-1.444-9.182-1.444c-1.998,0-8.785,0.866-8.785,0.866s-2.395-1.156-2.395-2.022c0-0.867,5.589-2.6,5.589-2.6
	l1.597-4.333l-1.463-2.311l-4.791,4.429L340.337,198.753z"/>
<linearGradient id="SVGID_2_" gradientUnits="userSpaceOnUse" x1="354.5615" y1="324.1982" x2="332.869" y2="264.5984">
	<stop  offset="0" style="stop-color:#B8552B"/>
	<stop  offset="1" style="stop-color:#7D0A05"/>
</linearGradient>
<path fill="url(#SVGID_2_)" d="M360.209,275.593c0,0-1.216,2.225-6.078,0c-4.86-2.225-7.428-4.543-12.696-5.377
	c-5.267-0.834-14.585-1.784-24.371,0.648c-7.354,1.828-18.168,5.044-23.979,14.555c-3.512,5.748-3.917,13.999-1.08,19.84
	c2.836,5.84,7.428,11.402,14.316,14.461c6.887,3.059,17.558,4.449,23.23,4.449s11.218-0.834,14.864-2.781
	c3.646-1.947-2.439-3.521,6.476-2.967c8.913,0.557,9.318,2.225,13.774,0.557c4.458-1.668,7.7-5.006,7.7-5.006
	s-2.027,0.557-4.055-2.225c-2.022-2.781,7.296-0.834,7.296-0.834s4.726-1.02,6.888-3.895c2.16-2.873,5.671,0,9.318,0
	c3.646,0,6.889,1.113,6.889,1.113s-5.269-5.563-8.916-6.953c-3.646-1.391-0.402-2.25-2.025-3.907
	c-1.62-1.655-2.228-0.091-4.657-0.091c-2.432,0-0.608-1.982-0.608-1.982c4.051-1.668,9.725-4.959,12.56-2.085
	c1.73,1.753,3.647-0.835,3.647-0.835s-3.647-3.894-6.077-5.562c-2.433-1.67-4.459-4.173-6.079-4.729
	c-1.62-0.557-7.292-1.391-9.318-1.391s-8.916,0.834-8.916,0.834s-2.429-1.112-2.429-1.946c0-0.835,5.672-2.503,5.672-2.503
	l1.62-4.172l-1.485-2.225l-4.862,4.264L360.209,275.593z"/>
<linearGradient id="SVGID_3_" gradientUnits="userSpaceOnUse" x1="334.4639" y1="400.4258" x2="314.269" y2="344.9408">
	<stop  offset="0" style="stop-color:#B8552B"/>
	<stop  offset="1" style="stop-color:#7D0A05"/>
</linearGradient>
<path fill="url(#SVGID_3_)" d="M338.532,354.164c0,0-1.02,2.225-5.099,0c-4.078-2.225-6.231-4.543-10.651-5.377
	c-4.418-0.834-12.236-1.783-20.446,0.648c-6.169,1.828-15.242,5.045-20.116,14.555c-2.947,5.748-3.286,14-0.906,19.84
	c2.379,5.84,6.231,11.402,12.01,14.461c5.778,3.061,14.729,4.451,19.488,4.451s9.411-0.836,12.47-2.781
	c3.059-1.947-2.047-3.523,5.432-2.967c7.478,0.557,7.817,2.225,11.556,0.557c3.74-1.67,6.46-5.006,6.46-5.006
	s-1.701,0.555-3.401-2.227c-1.697-2.779,6.12-0.834,6.12-0.834s3.965-1.02,5.778-3.893c1.813-2.875,4.758,0,7.817,0
	s5.779,1.111,5.779,1.111s-4.42-5.563-7.479-6.953c-3.059-1.391-0.338-2.25-1.699-3.906c-1.359-1.654-1.869-0.09-3.907-0.09
	c-2.04,0-0.511-1.982-0.511-1.982c3.398-1.668,8.158-4.959,10.537-2.086c1.451,1.754,3.06-0.834,3.06-0.834s-3.06-3.895-5.099-5.563
	c-2.04-1.67-3.74-4.172-5.1-4.729s-6.117-1.391-7.817-1.391s-7.479,0.834-7.479,0.834s-2.038-1.111-2.038-1.945
	c0-0.836,4.759-2.504,4.759-2.504l1.359-4.172l-1.246-2.225l-4.079,4.264L338.532,354.164z"/>
<linearGradient id="SVGID_4_" gradientUnits="userSpaceOnUse" x1="280.9746" y1="172.9146" x2="260.3936" y2="116.3687">
	<stop  offset="0" style="stop-color:#B8552B"/>
	<stop  offset="1" style="stop-color:#7D0A05"/>
</linearGradient>
<path fill="url(#SVGID_4_)" d="M285.669,126.165c0,0-1.085,2.225-5.424,0s-6.629-4.543-11.331-5.377
	c-4.7-0.834-13.016-1.784-21.749,0.648c-6.563,1.828-16.213,5.044-21.398,14.555c-3.134,5.748-3.495,13.999-0.963,19.84
	c2.531,5.84,6.629,11.402,12.775,14.461c6.146,3.06,15.668,4.45,20.73,4.45s10.011-0.835,13.265-2.781
	c3.254-1.947-2.178-3.522,5.778-2.967c7.954,0.557,8.316,2.225,12.292,0.557c3.979-1.669,6.872-5.006,6.872-5.006
	s-1.81,0.556-3.618-2.226c-1.807-2.78,6.509-0.834,6.509-0.834s4.218-1.02,6.146-3.894c1.928-2.874,5.062,0,8.316,0
	c3.254,0,6.148,1.112,6.148,1.112s-4.702-5.563-7.956-6.953c-3.254-1.391-0.36-2.25-1.808-3.906
	c-1.446-1.655-1.988-0.091-4.156-0.091c-2.17,0-0.543-1.982-0.543-1.982c3.616-1.668,8.678-4.959,11.209-2.085
	c1.544,1.753,3.254-0.835,3.254-0.835s-3.254-3.894-5.424-5.562c-2.17-1.67-3.978-4.173-5.424-4.729
	c-1.446-0.557-6.508-1.391-8.316-1.391s-7.956,0.834-7.956,0.834s-2.169-1.112-2.169-1.946c0-0.835,5.063-2.503,5.063-2.503
	l1.446-4.172l-1.326-2.225l-4.339,4.264L285.669,126.165z"/>
<linearGradient id="SVGID_5_" gradientUnits="userSpaceOnUse" x1="456.1514" y1="245.3223" x2="435.4929" y2="188.5636">
	<stop  offset="0" style="stop-color:#F6F97D"/>
	<stop  offset="1" style="stop-color:#F0C74F"/>
</linearGradient>
<path fill="url(#SVGID_5_)" d="M422.865,193.318c0,0-9.514,2.713-12.686,5.633c-3.166,2.922-7.488,6.053-8.064,7.513
	c-0.576,1.463-6.626,10.124-6.05,14.453c0.577,4.329,1.731,10.798,4.034,13.93c2.305,3.129,6.018,6.677,9.348,8.138
	c3.326,1.461,14.275,3.756,17.732,4.174c3.457,0.416,7.201-0.417,9.793-1.669c2.596-1.253,0.863-2.922,4.898-3.13
	c4.033-0.209,14.115,0.416,18.438,0c4.32-0.418,5.186,0,7.777-1.669c2.592-1.671,3.746-2.714,0-2.922
	c-3.746-0.208-8.066-0.835-8.643-1.877c-0.576-1.043-0.621-1.253,3.578-1.462c4.201-0.208,4.383,0,7.461-0.418
	c3.078-0.416,3.654-1.25,6.246-2.712c2.592-1.46,8.068-1.669,10.66-1.669s3.744,0.418,5.475-1.459
	c1.727-1.879,2.303-1.671-1.73-2.297c-4.033-0.625-1.729-1.043-8.354-2.086c-6.627-1.043-8.932-0.417-10.371-1.877
	c-1.441-1.461-2.018-2.295,1.729-3.548c3.744-1.251,4.033-3.13,7.779-3.546c3.744-0.418,8.354-0.835,10.08-0.627
	c1.73,0.209,7.492-0.416,4.32-1.251c-3.166-0.835-7.775-2.295-8.928-3.758c-1.152-1.459-5.764-2.712-8.93-3.338
	c-3.17-0.624-10.949,0.21-12.389,0.835c-1.441,0.625-2.594,0.417-1.152-1.879c1.441-2.295,1.441-5.425,1.441-5.425
	s-1.73-1.252-4.611-0.208s-2.881,3.965-6.625,3.131c-3.744-0.835-4.609-3.548-10.084-4.8c-5.471-1.253-7.203-4.174-9.506-4.174
	C433.229,193.318,422.865,193.318,422.865,193.318z"/>
<linearGradient id="SVGID_6_" gradientUnits="userSpaceOnUse" x1="510.9609" y1="326.8506" x2="485.2814" y2="256.2966">
	<stop  offset="0" style="stop-color:#F6F97D"/>
	<stop  offset="1" style="stop-color:#F0C74F"/>
</linearGradient>
<path fill="url(#SVGID_6_)" d="M463.455,265.318c0,0-14.213,3.099-18.951,6.434c-4.729,3.337-11.188,6.913-12.047,8.58
	c-0.861,1.671-9.9,11.563-9.039,16.507c0.863,4.944,2.588,12.333,6.027,15.909c3.443,3.574,8.99,7.627,13.965,9.295
	c4.969,1.67,21.326,4.291,26.49,4.768c5.166,0.475,10.76-0.477,14.631-1.906c3.879-1.432,1.289-3.338,7.318-3.576
	c6.025-0.238,21.088,0.476,27.545,0c6.453-0.477,7.746,0,11.619-1.906c3.871-1.908,5.596-3.1,0-3.338
	c-5.598-0.237-12.051-0.953-12.912-2.144c-0.861-1.192-0.928-1.431,5.346-1.671c6.275-0.236,6.547,0,11.146-0.477
	c4.598-0.476,5.459-1.428,9.33-3.098c3.873-1.668,12.055-1.907,15.926-1.907c3.873,0,5.594,0.478,8.18-1.667
	c2.578-2.146,3.439-1.908-2.586-2.623s-2.582-1.191-12.48-2.383c-9.9-1.192-13.342-0.476-15.492-2.145
	c-2.154-1.669-3.016-2.622,2.582-4.053c5.594-1.429,6.025-3.575,11.621-4.05c5.594-0.477,12.48-0.954,15.059-0.716
	c2.586,0.239,11.193-0.475,6.455-1.43c-4.73-0.954-11.615-2.621-13.338-4.292c-1.721-1.667-8.609-3.098-13.34-3.813
	c-4.736-0.713-16.357,0.24-18.508,0.954c-2.154,0.714-3.875,0.477-1.723-2.146c2.154-2.621,2.154-6.196,2.154-6.196
	s-2.586-1.43-6.889-0.238c-4.305,1.191-4.305,4.528-9.898,3.576c-5.594-0.954-6.885-4.053-15.064-5.482
	c-8.172-1.431-10.762-4.767-14.201-4.767C478.938,265.318,463.455,265.318,463.455,265.318z"/>
<linearGradient id="SVGID_7_" gradientUnits="userSpaceOnUse" x1="470.1602" y1="401.542" x2="448.342" y2="341.5971">
	<stop  offset="0" style="stop-color:#F6F97D"/>
	<stop  offset="1" style="stop-color:#F0C74F"/>
</linearGradient>
<path fill="url(#SVGID_7_)" d="M431.5,348.339c0,0-11.408,2.713-15.209,5.634c-3.797,2.922-8.98,6.053-9.67,7.512
	c-0.691,1.463-7.946,10.125-7.254,14.453c0.691,4.33,2.077,10.799,4.836,13.93c2.764,3.129,7.217,6.678,11.209,8.139
	c3.988,1.461,17.115,3.756,21.26,4.174c4.145,0.416,8.635-0.418,11.742-1.67c3.111-1.252,1.035-2.922,5.873-3.13
	c4.836-0.21,16.924,0.416,22.105,0c5.182-0.418,6.219,0,9.326-1.669c3.107-1.671,4.49-2.715,0-2.922
	c-4.49-0.209-9.672-0.836-10.363-1.878c-0.691-1.044-0.744-1.253,4.291-1.462c5.037-0.209,5.256,0,8.945-0.418
	c3.689-0.416,4.383-1.25,7.49-2.713c3.107-1.46,9.672-1.67,12.779-1.67s4.49,0.418,6.564-1.459c2.072-1.879,2.762-1.671-2.074-2.297
	c-4.836-0.625-2.072-1.043-10.016-2.086c-7.945-1.044-10.709-0.417-12.436-1.878c-1.727-1.462-2.418-2.296,2.074-3.548
	c4.488-1.252,4.836-3.131,9.326-3.547c4.488-0.418,10.016-0.836,12.086-0.627c2.074,0.209,8.982-0.416,5.18-1.252
	c-3.797-0.836-9.322-2.295-10.705-3.758c-1.381-1.459-6.908-2.713-10.707-3.338s-13.125,0.209-14.854,0.835
	c-1.727,0.626-3.107,0.417-1.381-1.879c1.729-2.295,1.729-5.425,1.729-5.425s-2.074-1.252-5.527-0.209
	c-3.457,1.043-3.457,3.965-7.945,3.131c-4.488-0.836-5.525-3.549-12.09-4.8c-6.561-1.253-8.637-4.174-11.398-4.174
	S431.5,348.339,431.5,348.339z"/>
<linearGradient id="SVGID_8_" gradientUnits="userSpaceOnUse" x1="422.5957" y1="479.9893" x2="401.9369" y2="423.2296">
	<stop  offset="0" style="stop-color:#F6F97D"/>
	<stop  offset="1" style="stop-color:#F0C74F"/>
</linearGradient>
<path fill="url(#SVGID_8_)" d="M389.309,427.984c0,0-9.514,2.713-12.685,5.634c-3.167,2.923-7.489,6.054-8.064,7.513
	c-0.576,1.463-6.627,10.124-6.051,14.453c0.577,4.329,1.731,10.798,4.034,13.93c2.305,3.129,6.019,6.678,9.348,8.139
	c3.327,1.461,14.275,3.756,17.732,4.174c3.457,0.416,7.202-0.418,9.794-1.67c2.594-1.253,0.863-2.922,4.896-3.131
	s14.115,0.416,18.438,0c4.322-0.418,5.186,0,7.779-1.668c2.592-1.672,3.744-2.715,0-2.923c-3.746-0.208-8.068-0.835-8.645-1.878
	s-0.621-1.252,3.578-1.462c4.203-0.208,4.385,0,7.461-0.418c3.078-0.416,3.656-1.25,6.248-2.712c2.592-1.461,8.066-1.67,10.658-1.67
	s3.744,0.418,5.475-1.459c1.729-1.879,2.305-1.672-1.73-2.297c-4.033-0.626-1.727-1.044-8.354-2.087
	c-6.625-1.044-8.93-0.417-10.371-1.878c-1.439-1.461-2.016-2.295,1.73-3.548c3.744-1.251,4.033-3.13,7.777-3.546
	c3.744-0.418,8.354-0.836,10.082-0.628c1.729,0.21,7.49-0.416,4.32-1.251c-3.168-0.836-7.777-2.295-8.93-3.758
	c-1.152-1.46-5.762-2.713-8.93-3.339c-3.17-0.624-10.947,0.21-12.389,0.835c-1.439,0.626-2.592,0.418-1.152-1.879
	c1.443-2.295,1.443-5.425,1.443-5.425s-1.73-1.252-4.611-0.208c-2.883,1.043-2.883,3.965-6.627,3.131
	c-3.744-0.836-4.607-3.549-10.084-4.801c-5.471-1.252-7.201-4.174-9.506-4.174C399.673,427.984,389.309,427.984,389.309,427.984z"/>
</svg>
